<?xml version="1.0" standalone="no"?>
<!DOCTYPE svg PUBLIC "-//W3C//DTD SVG 20010904//EN"
 "http://www.w3.org/TR/2001/REC-SVG-20010904/DTD/svg10.dtd">
<svg version="1.0" xmlns="http://www.w3.org/2000/svg"
 width="1024.000000pt" height="1024.000000pt" viewBox="0 0 1024.000000 1024.000000"
 preserveAspectRatio="xMidYMid meet">

<g transform="translate(0.000000,1024.000000) scale(0.100000,-0.100000)"
fill="#000000" stroke="none">
<path d="M0 5120 l0 -5120 5120 0 5120 0 0 5120 0 5120 -5120 0 -5120 0 0
-5120z m8532 4475 c202 -43 348 -193 388 -400 8 -42 10 -224 8 -620 l-3 -560
-26 -67 c-79 -204 -222 -330 -444 -390 -77 -21 -102 -22 -658 -26 l-577 -4
-48 -33 c-26 -19 -119 -83 -207 -143 -178 -120 -231 -142 -294 -124 -103 31
-113 115 -37 335 l47 137 -51 58 c-28 31 -67 89 -86 127 -63 129 -65 154 -62
769 3 533 4 553 25 606 55 145 150 249 273 300 111 46 149 48 937 49 630 1
753 -1 815 -14z m-5586 -36 c154 -58 248 -212 228 -377 -7 -63 -8 -65 -14 -29
-8 44 -24 65 -35 46 -5 -8 -4 -10 3 -5 7 4 12 1 12 -9 0 -9 -4 -14 -8 -11 -5
3 -31 -2 -58 -10 -96 -30 -253 1 -331 65 -49 40 -102 135 -105 186 -3 36 -6
42 -19 34 -14 -7 -16 -3 -13 21 2 17 1 30 -2 30 -3 0 -27 -21 -54 -46 -61 -57
-65 -50 -8 12 70 76 157 112 270 113 55 1 93 -5 134 -20z m-356 -99 c0 -5 -5
-10 -11 -10 -5 0 -7 5 -4 10 3 6 8 10 11 10 2 0 4 -4 4 -10z m-97 -75 c-3 -9
-8 -14 -10 -11 -3 3 -2 9 2 15 9 16 15 13 8 -4z m1427 -865 c288 -51 522 -147
654 -271 86 -80 130 -143 165 -234 12 -33 27 -70 32 -83 5 -13 9 -33 8 -45 -1
-24 -4 -18 -14 27 -5 25 -7 26 -18 12 -10 -14 -12 -13 -14 10 -1 19 1 23 8 13
14 -23 11 6 -6 48 -9 21 -25 45 -37 52 -19 12 -18 9 5 -18 30 -36 33 -51 15
-69 -7 -7 -8 -12 -3 -12 5 0 0 -7 -11 -15 -10 -8 -30 -14 -44 -15 -20 0 -22 2
-10 10 10 6 11 10 3 10 -7 0 -13 9 -13 20 0 21 -16 28 -22 9 -2 -7 -15 -1 -32
14 -15 14 -25 31 -21 36 3 7 0 8 -10 5 -10 -4 -28 6 -49 26 -31 31 -125 69
-168 70 -10 0 -18 4 -18 8 0 4 -15 9 -32 9 -49 2 -106 11 -118 18 -5 3 -10 1
-10 -4 0 -6 -5 -11 -11 -11 -5 0 -7 5 -4 10 3 6 -1 10 -9 10 -9 0 -16 -4 -16
-10 0 -5 -7 -10 -16 -10 -9 0 -12 5 -8 12 5 8 2 9 -12 4 -37 -16 -156 -20
-164 -6 -4 7 -13 9 -21 5 -14 -10 -45 -13 -146 -15 -40 0 -73 -4 -73 -8 0 -4
-62 -8 -138 -8 -215 -3 -276 -6 -289 -17 -9 -6 -13 -6 -13 3 0 8 -4 9 -12 3
-7 -5 -69 -11 -138 -12 -76 -2 -128 -7 -132 -14 -4 -7 -11 -7 -22 2 -9 8 -23
10 -33 6 -10 -4 -79 -9 -153 -11 -74 -2 -153 -6 -175 -8 -95 -9 -153 -18 -200
-31 -27 -8 -74 -17 -102 -21 -29 -3 -50 -10 -47 -15 3 -5 -2 -9 -10 -9 -9 0
-16 5 -16 10 0 6 -5 10 -11 10 -6 0 -9 -6 -7 -12 7 -19 -13 -34 -54 -41 -36
-5 -91 -37 -115 -67 -7 -8 -13 -11 -13 -6 0 5 -8 2 -18 -7 -9 -8 -30 -20 -45
-26 -16 -6 -26 -15 -22 -21 6 -10 -37 -36 -69 -42 -17 -2 -20 4 -23 42 -2 25
0 52 3 60 4 8 6 25 5 37 -1 11 3 24 8 28 6 3 11 17 11 30 0 13 5 27 10 30 6 3
10 15 10 26 0 11 7 27 15 35 8 9 15 25 15 36 0 17 -4 20 -30 15 -22 -5 -30 -3
-30 8 0 13 -46 27 -80 23 -19 -2 -80 24 -80 34 0 4 -18 8 -40 8 -29 0 -40 4
-40 15 0 16 -35 21 -45 5 -8 -13 -35 -1 -35 17 0 7 -6 13 -12 11 -15 -2 -60
12 -68 21 -3 3 -14 11 -25 18 -11 6 -19 17 -17 24 2 7 -4 19 -13 25 -15 11
-15 14 3 32 11 11 32 24 48 30 43 16 6 14 -46 -2 -52 -16 -170 -77 -220 -114
-30 -22 -32 -22 -16 -4 29 33 163 107 236 130 93 30 210 50 357 61 171 14 643
34 649 29 2 -3 -55 -8 -128 -12 -343 -17 -382 -19 -363 -27 11 -4 59 -8 107
-8 48 -1 120 -6 160 -11 76 -11 665 -20 731 -12 35 4 37 7 37 39 0 21 4 32 10
28 6 -4 8 -16 4 -28 -6 -20 -6 -21 12 -3 16 16 30 18 109 14 50 -3 77 -2 60 2
-20 5 -23 8 -10 9 11 0 34 -3 52 -8 24 -7 31 -6 27 3 -6 15 47 26 116 25 49
-1 42 -4 -33 -14 -27 -4 -47 -8 -45 -11 3 -2 56 3 118 11 63 8 154 15 204 15
49 0 86 3 82 7 -9 9 -661 5 -691 -4 -11 -3 -16 -2 -12 3 12 13 301 22 597 19
209 -3 277 -7 380 -25z m-1302 -7 c-27 -2 -69 -2 -95 0 -27 2 -5 3 47 3 52 0
74 -1 48 -3z m460 -10 c-10 -2 -28 -2 -40 0 -13 2 -5 4 17 4 22 1 32 -1 23 -4z
m-1728 -144 c-11 -8 -12 -12 -2 -16 16 -6 5 -23 -16 -23 -14 0 -15 2 -2 10 12
7 11 10 -5 16 -18 7 -18 8 1 15 28 11 41 10 24 -2z m-50 -13 c0 -2 -7 -7 -16
-10 -8 -3 -12 -2 -9 4 6 10 25 14 25 6z m3497 -568 c-3 -8 -6 -5 -6 6 -1 11 2
17 5 13 3 -3 4 -12 1 -19z m10 -85 c-3 -10 -5 -4 -5 12 0 17 2 24 5 18 2 -7 2
-21 0 -30z m91 -197 c23 -22 30 -36 26 -50 -4 -16 -3 -18 5 -7 19 28 82 -137
80 -209 -1 -19 -3 -26 -5 -15 -18 87 -29 125 -37 125 -5 0 -6 7 -3 16 4 10 2
13 -6 8 -8 -5 -9 -2 -5 9 8 20 -1 47 -15 47 -6 0 -5 -6 2 -15 6 -8 9 -19 5
-24 -3 -6 2 -25 11 -43 10 -18 19 -49 20 -68 2 -26 1 -30 -5 -15 -5 11 -6 24
-3 29 3 5 0 6 -6 2 -7 -4 -10 -23 -8 -44 2 -20 1 -29 -1 -19 -4 15 -6 15 -19
2 -9 -8 -13 -19 -9 -24 3 -5 -4 -12 -15 -16 -11 -3 -20 -12 -20 -18 0 -7 -4
-6 -10 3 -7 11 -10 11 -10 2 0 -7 -4 -10 -10 -7 -5 3 -10 1 -10 -4 0 -6 -4
-11 -10 -11 -6 0 -10 68 -9 188 1 103 3 179 6 170 2 -10 9 -19 14 -19 19 -3
24 -5 37 -12 7 -5 10 -17 7 -28 -4 -11 1 -29 11 -41 14 -20 15 -20 9 -3 -5 11
-8 30 -8 42 1 14 -14 36 -38 58 -21 19 -39 38 -39 41 0 8 25 -10 68 -50z
m-3747 -258 c95 -50 135 -148 94 -227 -29 -58 -74 -39 -124 52 -26 46 -38 166
-19 179 17 10 22 10 49 -4z m1509 -62 c0 -3 -4 -8 -10 -11 -5 -3 -10 -1 -10 4
0 6 5 11 10 11 6 0 10 -2 10 -4z m1174 -756 c14 -5 32 -22 40 -38 35 -69 -38
-179 -176 -266 -54 -34 -205 -97 -231 -95 -7 0 19 12 56 26 71 27 89 43 21 20
-153 -54 -391 -45 -539 20 -22 10 -43 22 -47 28 -5 6 -8 4 -8 -4 0 -11 -6 -8
-20 7 -12 12 -26 22 -33 22 -17 0 -167 157 -167 174 0 7 9 25 21 40 32 40 80
36 154 -15 129 -88 222 -119 360 -119 151 0 312 54 430 145 49 38 93 65 107
65 4 0 18 -4 32 -10z m4070 -135 c-15 -99 -10 -283 9 -352 27 -101 98 -239
154 -298 46 -48 55 -75 62 -190 8 -126 26 -170 76 -184 56 -15 113 24 162 109
63 110 132 155 238 154 77 0 114 -15 162 -63 54 -53 68 -96 68 -201 0 -83 -4
-103 -27 -153 -38 -81 -98 -150 -168 -192 -33 -20 -61 -36 -62 -36 -2 0 -20
-4 -40 -8 -27 -6 -38 -5 -39 3 0 7 -2 7 -6 -1 -5 -14 -65 -18 -77 -6 -3 4 -15
8 -26 10 -17 2 -20 -3 -20 -33 0 -26 8 -42 29 -62 38 -35 63 -86 57 -116 -3
-18 1 -26 17 -30 21 -6 21 -7 3 -21 -20 -15 -15 -52 5 -39 7 4 9 3 5 -4 -3 -6
-2 -13 4 -17 5 -3 10 -12 10 -18 0 -7 -5 -4 -11 6 -17 29 -29 19 -29 -25 0
-35 -6 -49 -37 -82 l-38 -39 47 31 c25 18 55 43 66 57 11 13 23 21 27 17 4 -4
5 4 2 16 -5 23 -5 23 13 7 38 -34 82 -135 87 -199 l5 -62 82 -42 c219 -112
374 -249 444 -392 81 -164 104 -335 83 -606 -29 -361 -85 -614 -176 -794 -24
-47 -46 -99 -49 -115 -4 -17 -15 -45 -26 -63 -19 -31 -94 -92 -113 -92 -6 0
-2 6 9 14 10 8 19 19 19 24 0 5 15 26 33 47 17 21 32 45 31 54 0 14 -1 14 -6
1 -10 -25 -83 -91 -93 -85 -6 4 -10 2 -10 -4 0 -13 -55 -42 -64 -34 -3 4 -6 1
-6 -5 0 -14 -54 -43 -72 -39 -7 2 -9 2 -5 -1 4 -2 -7 -12 -25 -22 -24 -12 -35
-14 -40 -6 -6 8 -8 8 -8 -1 0 -7 7 -16 16 -21 15 -8 15 -10 0 -15 -10 -4 -15
-3 -11 3 3 6 -5 10 -19 10 -14 0 -28 -5 -31 -11 -4 -6 -14 -8 -22 -5 -8 3 -11
1 -8 -4 3 -5 -7 -12 -22 -16 -15 -4 -59 -25 -98 -47 -102 -58 -193 -107 -200
-107 -3 0 -3 5 1 12 4 7 3 8 -5 4 -17 -11 -51 3 -45 19 3 7 1 16 -5 20 -6 3
-11 21 -11 39 0 57 -39 187 -76 255 -69 126 -152 190 -256 197 l-63 4 71 -18
c111 -29 181 -87 235 -197 26 -55 51 -168 44 -205 -13 -69 -28 -100 -63 -126
-98 -76 -126 -89 -312 -144 -47 -14 -105 -49 -96 -57 3 -3 12 2 21 11 16 15
93 41 101 33 2 -2 -15 -10 -38 -16 -24 -7 -53 -22 -67 -32 -28 -22 -113 -49
-150 -48 -19 1 -14 4 19 14 l45 12 -45 2 c-70 1 -89 5 -83 14 7 11 -17 38 -28
31 -5 -3 -9 2 -9 11 0 9 5 13 10 10 6 -3 10 3 10 15 0 22 -4 21 -50 -12 -14
-10 -47 -20 -75 -23 -35 -3 -41 -2 -20 3 l30 8 -33 7 c-18 4 -31 11 -27 17 3
6 0 7 -9 4 -19 -7 -21 -20 -3 -27 7 -3 7 -6 1 -6 -6 -1 -19 8 -29 19 -17 18
-17 20 -2 14 23 -8 21 2 -4 37 -11 16 -19 36 -16 43 8 21 -3 27 -19 11 -26
-25 -69 1 -80 48 -7 32 -7 32 -15 7 -4 -14 -7 -18 -8 -8 -1 9 8 45 19 80 12
40 14 57 6 45 -13 -17 -14 -17 -21 0 -7 17 -8 17 -15 -2 -8 -18 -9 -17 -9 6
-1 39 69 137 130 184 29 22 118 72 198 112 80 40 141 72 134 73 -18 0 -33 56
-23 87 5 16 11 165 14 333 5 268 22 594 42 803 6 62 10 72 52 118 53 59 78 75
96 60 7 -6 16 -8 19 -4 4 3 7 2 7 -3 0 -5 14 -18 30 -27 36 -22 38 -16 7 15
-12 13 -36 55 -51 93 -16 39 -44 105 -61 148 -18 42 -29 77 -23 77 5 0 6 4 3
10 -7 12 5 17 170 70 157 50 247 89 124 54 -13 -4 -19 -2 -15 4 4 6 -3 8 -16
5 -22 -5 -22 -5 -7 12 13 13 15 25 9 46 -6 19 -4 29 3 32 25 9 -1 17 -59 18
-32 1 -90 -3 -129 -9 -77 -13 -313 -16 -301 -5 4 4 26 6 49 5 23 -1 49 2 57 8
11 7 4 10 -30 11 -37 2 -39 3 -12 6 30 4 47 23 19 23 -7 0 -13 9 -14 21 -3 31
-21 48 -64 59 -22 6 -37 15 -34 19 4 8 -17 22 -36 25 -3 1 -13 8 -22 18 -9 9
-34 19 -56 23 -26 4 -54 20 -87 51 -37 35 -53 44 -71 39 -13 -3 -23 -1 -23 5
0 5 5 10 11 10 24 0 -4 18 -38 25 -32 6 -35 9 -18 15 20 9 15 12 -20 14 -15 1
-19 7 -17 23 2 17 -3 22 -25 25 -22 2 -27 7 -25 23 2 11 1 17 -4 13 -8 -9 -53
37 -55 55 -2 20 -4 30 -13 67 -9 34 -10 34 -17 10 -5 -17 -7 -19 -8 -7 -1 10
3 26 8 35 16 30 1 72 -28 78 -14 4 -33 12 -41 19 -8 7 -26 16 -40 20 -14 4
-36 19 -49 33 -21 23 -23 33 -19 87 3 34 15 80 27 104 13 25 17 40 9 35 -7 -5
-17 -9 -22 -9 -5 0 -12 -9 -17 -20 -7 -18 -8 -17 -8 6 -1 37 18 88 32 85 7 -1
9 -1 5 1 -5 3 -8 11 -8 19 0 11 7 13 28 8 23 -6 25 -5 15 8 -11 12 -9 18 7 33
11 10 20 13 20 7 0 -6 -5 -13 -10 -15 -6 -3 -5 -4 2 -3 21 4 24 196 3 235 -8
17 -22 31 -30 31 -20 0 -45 -40 -45 -72 0 -15 -4 -29 -9 -32 -5 -4 -8 2 -6 11
2 10 7 35 10 56 3 21 10 35 15 32 6 -3 8 7 6 24 -2 22 0 28 11 24 10 -4 11 -9
2 -19 -9 -11 -7 -14 13 -14 13 0 31 -6 38 -12 12 -11 13 -11 3 1 -6 7 -9 21
-6 30 4 14 3 14 -6 1 -9 -13 -12 -12 -26 5 -8 11 -13 28 -11 37 4 19 -17 42
-27 31 -4 -3 -7 7 -6 23 0 16 3 23 6 17 11 -29 23 -10 21 32 -2 31 -7 44 -15
40 -17 -6 -16 7 1 31 10 13 11 23 4 31 -6 8 -6 13 -1 13 5 0 19 19 31 43 28
53 46 77 60 77 6 0 17 8 24 18 8 12 26 19 46 20 18 0 39 5 45 10 13 10 85 28
152 38 22 3 43 8 46 10 6 3 257 48 449 80 52 9 140 23 195 33 148 24 139 28
129 -44z m-1201 -55 c-3 -12 -8 -19 -11 -16 -5 6 5 36 12 36 2 0 2 -9 -1 -20z
m-4806 -22 c-3 -8 -6 -5 -6 6 -1 11 2 17 5 13 3 -3 4 -12 1 -19z m4783 -59
c-6 -24 -17 -66 -25 -94 -13 -45 -14 -46 -9 -10 7 49 36 156 41 151 2 -2 -1
-23 -7 -47z m-2110 -45 c-28 -89 -42 -114 -85 -158 -19 -20 -35 -40 -35 -44
-1 -22 -253 -172 -290 -172 -10 0 -39 -8 -66 -19 -96 -36 -120 -44 -219 -67
-116 -28 -139 -32 -220 -40 -33 -3 -64 -9 -70 -14 -5 -4 -45 -11 -88 -14 -43
-3 -88 -8 -100 -11 -53 -11 -378 -27 -542 -26 -327 2 -514 26 -627 81 -23 11
-48 20 -55 20 -7 0 -13 4 -13 9 0 5 -15 11 -32 15 -23 5 -29 9 -20 15 10 6 7
10 -11 15 -14 3 -38 19 -53 35 -15 17 -31 28 -36 25 -4 -3 -5 1 -2 9 5 15 -20
47 -38 47 -5 0 -8 6 -5 14 3 8 -1 20 -9 26 -8 7 -14 18 -14 25 0 8 -6 15 -12
17 -10 4 -10 10 0 32 13 30 36 26 27 -5 -4 -13 -2 -19 9 -19 22 0 20 18 -9 78
-14 29 -25 57 -25 63 0 7 17 -22 37 -62 78 -156 220 -253 423 -286 86 -15 169
-18 460 -18 360 0 471 8 735 50 107 18 126 19 106 6 -8 -5 -48 -12 -89 -16
-42 -4 -85 -11 -96 -16 -16 -7 -13 -8 14 -5 19 3 76 10 125 17 97 12 143 27
90 30 -25 1 -22 3 15 11 273 57 395 97 498 164 31 20 64 41 72 47 8 5 -1 -5
-20 -22 -44 -40 -22 -40 37 -1 24 17 47 30 51 30 11 0 144 139 171 178 13 18
25 31 28 28 3 -3 -5 -35 -17 -72z m-2643 -36 c-3 -8 -6 -5 -6 6 -1 11 2 17 5
13 3 -3 4 -12 1 -19z m1466 -65 c-7 -2 -19 -2 -25 0 -7 3 -2 5 12 5 14 0 19
-2 13 -5z m3233 -133 c-8 -63 -14 -100 -15 -81 -1 42 21 220 26 206 1 -5 -3
-62 -11 -125z m-19 -237 c-2 -21 -4 -4 -4 37 0 41 2 58 4 38 2 -21 2 -55 0
-75z m-10 -320 c-1 -54 -3 -12 -3 92 0 105 2 149 3 98 2 -51 2 -136 0 -190z
m116 228 c4 -29 2 -40 -4 -30 -8 13 -14 88 -5 78 2 -2 6 -24 9 -48z m27 -86
c0 -5 -5 -3 -10 5 -5 8 -10 20 -10 25 0 6 5 3 10 -5 5 -8 10 -19 10 -25z
m-127 -325 c3 -41 2 -54 -3 -35 -8 31 -13 112 -6 104 2 -2 6 -33 9 -69z m14
-102 c-3 -8 -6 -5 -6 6 -1 11 2 17 5 13 3 -3 4 -12 1 -19z m10 -50 c-3 -7 -5
-2 -5 12 0 14 2 19 5 13 2 -7 2 -19 0 -25z m-4332 7 c33 -3 85 -9 115 -12 30
-3 97 -8 148 -10 50 -2 93 -9 94 -14 3 -22 3 -29 -2 -27 -3 1 -16 -4 -28 -11
-13 -7 -56 -14 -96 -15 -40 -1 -78 -6 -85 -10 -7 -5 -18 -3 -24 3 -18 18 -29
13 -23 -11 3 -13 3 -17 0 -10 -6 13 -165 18 -178 5 -7 -7 -14 -9 -51 -13 -53
-6 -62 -1 -78 47 -10 29 -12 54 -7 68 8 20 14 22 82 19 40 -1 100 -5 133 -9z
m415 -39 c0 -8 -4 -18 -10 -21 -5 -3 -10 3 -10 14 0 12 5 21 10 21 6 0 10 -6
10 -14z m3964 -116 c9 -25 13 -40 8 -35 -13 14 -52 131 -51 153 0 9 7 -3 14
-28 7 -25 20 -65 29 -90z m-5078 -59 c42 -40 66 -75 68 -96 0 -13 4 -21 8 -19
9 6 20 -14 28 -50 3 -17 12 -31 19 -31 8 0 15 -8 17 -18 4 -31 13 -49 22 -43
9 5 32 -35 32 -56 0 -7 10 -22 22 -35 12 -13 16 -23 9 -23 -7 0 -4 -9 8 -21
11 -12 24 -33 29 -48 27 -71 25 -69 32 -36 l8 30 1 -30 c1 -16 16 -52 33 -80
31 -49 37 -90 18 -124 -6 -11 -9 -9 -14 7 -7 21 -21 27 -56 24 -8 -1 -22 1
-30 5 -8 3 -24 7 -34 8 -11 1 -22 7 -24 13 -2 7 -12 12 -23 12 -12 0 -19 7
-19 20 0 11 -7 20 -15 20 -13 0 -20 19 -16 43 1 5 -8 5 -20 2 -18 -6 -20 -4
-15 13 5 14 1 21 -13 25 -11 3 -27 22 -36 42 -8 21 -23 43 -32 50 -9 7 -18 18
-19 26 -6 27 -46 144 -60 177 -11 26 -12 48 -3 110 5 42 12 83 14 90 6 18 38
15 61 -7z m5114 -26 c0 -5 -5 -3 -10 5 -5 8 -10 20 -10 25 0 6 5 3 10 -5 5 -8
10 -19 10 -25z m41 -70 l10 -20 -16 20 c-9 11 -21 29 -26 40 l-10 20 16 -20
c9 -11 21 -29 26 -40z m1756 23 c-3 -8 -6 -5 -6 6 -1 11 2 17 5 13 3 -3 4 -12
1 -19z m-1722 -68 c10 -11 16 -20 13 -20 -3 0 -13 9 -23 20 -10 11 -16 20 -13
20 3 0 13 -9 23 -20z m55 -55 c13 -14 21 -25 18 -25 -2 0 -15 11 -28 25 -13
14 -21 25 -18 25 2 0 15 -11 28 -25z m101 -81 c9 -11 2 -9 -18 6 -18 13 -33
25 -33 27 0 8 38 -17 51 -33z m-2480 6 c10 0 19 -7 19 -15 0 -9 7 -18 16 -22
25 -9 40 -56 35 -109 -3 -37 -6 -44 -12 -29 -7 20 -8 20 -8 -1 -1 -33 -38 -64
-75 -64 -37 0 -61 21 -72 65 l-8 30 -7 -30 c-6 -26 -7 -24 -8 16 -2 73 53 177
86 165 8 -3 23 -6 34 -6z m2539 -35 c17 -9 30 -18 30 -21 0 -4 -59 23 -69 32
-10 9 13 3 39 -11z m-1792 -49 c75 -39 142 -147 142 -228 0 -88 -65 -353 -87
-353 -14 0 -63 -42 -56 -49 3 -3 -4 -6 -16 -6 -12 0 -24 -7 -27 -15 -4 -10
-14 -13 -32 -8 -17 4 -23 2 -18 -5 5 -8 1 -10 -9 -6 -8 4 -22 1 -29 -5 -8 -7
-20 -11 -28 -10 -7 2 -23 0 -35 -5 -25 -8 -185 11 -193 23 -3 5 -23 14 -45 22
-58 20 -125 90 -126 131 l-1 33 -13 -35 c-8 -20 -14 -27 -14 -17 -2 32 40 116
57 116 67 3 104 0 129 -10 16 -6 98 -11 193 -11 160 -1 168 0 223 26 31 15 57
32 57 37 0 15 -23 10 -65 -12 -34 -18 -57 -21 -155 -21 -115 0 -169 8 -171 27
-1 13 -29 29 -37 20 -4 -3 0 -10 8 -15 9 -6 10 -10 3 -10 -12 0 -28 18 -28 33
0 4 -15 16 -33 27 -19 12 -42 39 -53 63 l-20 42 6 -35 c5 -26 4 -31 -4 -20
-20 28 -12 94 16 137 50 77 125 102 310 104 65 0 128 3 141 6 l24 6 -29 18
c-33 22 -24 25 15 5z m1902 -6 c8 -5 11 -10 5 -10 -5 0 -17 5 -25 10 -8 5 -10
10 -5 10 6 0 17 -5 25 -10z m70 -25 c19 -7 28 -14 20 -14 -8 0 -28 6 -45 14
-39 17 -21 18 25 0z m140 -36 c16 -6 10 -7 -20 -3 -25 4 -54 10 -65 15 -24 10
48 0 85 -12z m60 -9 c0 -5 -7 -7 -15 -4 -8 4 -15 8 -15 10 0 2 7 4 15 4 8 0
15 -4 15 -10z m-111 -42 c-2 -2 -42 -16 -89 -32 -97 -33 -209 -94 -260 -143
-34 -32 -34 -33 -12 -39 26 -7 28 -19 5 -33 -13 -7 -14 -12 -6 -23 7 -8 9 -28
3 -55 -4 -24 -5 -54 -2 -68 3 -18 -1 -30 -14 -40 -18 -14 -18 -14 4 -15 16 0
22 6 24 23 2 36 3 41 12 56 5 8 13 28 17 45 7 26 8 25 4 -11 -3 -23 -7 -48
-11 -56 -3 -9 3 -16 15 -20 13 -3 21 -13 21 -26 0 -28 18 -27 22 2 3 19 10 22
56 25 28 2 52 7 52 12 0 5 13 -3 29 -18 17 -15 26 -31 21 -36 -5 -5 -1 -16 9
-27 14 -15 23 -16 56 -9 70 17 85 13 85 -17 0 -19 3 -24 9 -15 7 11 9 11 14
-2 4 -11 1 -16 -11 -16 -13 0 -14 -2 -4 -8 8 -5 10 -16 6 -27 -6 -14 -4 -17 9
-12 17 7 23 -4 10 -17 -8 -8 -9 -13 -12 -43 -1 -13 -3 -15 -9 -5 -6 8 -9 1 -9
-20 0 -18 -21 -103 -45 -188 -40 -139 -61 -227 -114 -478 -9 -41 -18 -71 -21
-68 -3 3 -1 25 5 48 14 55 23 107 15 89 -4 -11 -7 -11 -14 0 -5 9 -8 1 -7 -21
1 -50 -13 -140 -22 -140 -5 0 -6 -9 -3 -20 3 -11 0 -20 -6 -20 -6 0 -11 -8
-11 -17 0 -21 -29 -104 -30 -85 0 6 -5 12 -11 12 -6 0 -8 -8 -4 -19 3 -10 1
-29 -5 -42 -9 -21 -10 -20 -5 11 4 33 4 34 -10 16 -8 -11 -15 -23 -15 -28 0
-4 -13 -6 -30 -5 -16 1 -30 8 -30 14 0 7 -11 15 -24 19 -16 4 -23 11 -19 20 3
8 -3 24 -13 35 l-19 21 -7 -28 c-12 -49 2 609 18 816 7 107 14 206 14 220 -1
49 -17 -3 -24 -75 -4 -38 -11 -86 -16 -105 -8 -32 -21 -279 -24 -462 0 -42 -4
-74 -8 -71 -5 2 -8 -6 -8 -19 0 -18 2 -20 10 -8 14 21 12 3 -2 -23 -6 -12 -13
-62 -14 -112 -3 -95 -21 -174 -41 -182 -7 -3 -11 -8 -9 -12 7 -11 -130 -221
-144 -221 -4 0 -29 -22 -57 -50 -28 -28 -58 -50 -67 -50 -22 0 -42 35 -56 100
-25 113 -88 204 -179 257 -58 35 -166 43 -241 18 -34 -11 -55 -14 -59 -7 -3 5
-14 0 -24 -14 -10 -13 -13 -24 -8 -24 6 0 15 8 20 18 6 9 11 12 11 5 0 -8 14
-7 53 3 82 22 164 20 223 -5 104 -45 184 -164 184 -273 0 -57 -52 -220 -85
-268 -57 -82 -162 -95 -205 -25 -21 35 -28 129 -10 140 6 3 10 14 10 23 -1 14
-4 13 -19 -5 -11 -13 -24 -23 -29 -23 -22 0 -110 -85 -165 -160 -21 -29 -41
-45 -54 -45 -12 0 -25 -4 -29 -8 -5 -4 0 -5 11 -1 16 6 18 4 8 -6 -10 -10 -18
-10 -46 4 -41 19 -61 21 -51 4 4 -7 3 -8 -4 -4 -6 4 -8 14 -5 23 4 10 2 14 -4
10 -11 -7 -28 22 -42 73 l-9 35 -1 -45 c-1 -25 -4 -55 -7 -67 -7 -26 -42 -37
-61 -17 -8 8 -18 14 -22 14 -4 0 -21 25 -36 55 -27 51 -28 58 -19 112 6 32 15
67 19 77 17 40 -17 4 -36 -38 -10 -22 -19 -35 -19 -28 0 25 -20 11 -29 -20
l-9 -33 -1 36 c-2 58 51 149 137 237 64 65 95 87 187 134 101 52 112 60 135
105 30 58 110 138 228 229 48 37 122 97 166 133 91 76 95 85 236 411 158 367
203 446 319 560 50 50 101 89 150 114 73 38 232 98 240 90 2 -2 2 -5 0 -6z
m-54 -188 c-4 -12 -9 -19 -12 -17 -3 3 -2 15 2 27 4 12 9 19 12 17 3 -3 2 -15
-2 -27z m-286 -11 c-25 -16 -32 -9 -13 12 12 13 20 16 22 9 3 -7 -2 -16 -9
-21z m-2174 11 c3 -5 1 -10 -4 -10 -6 0 -11 5 -11 10 0 6 2 10 4 10 3 0 8 -4
11 -10z m2456 -94 c6 -6 9 -6 9 2 0 7 5 12 10 12 6 0 10 -9 10 -20 0 -22 24
-27 36 -8 4 7 3 8 -4 4 -8 -4 -12 0 -12 12 0 16 5 18 37 13 43 -7 50 -29 22
-65 -10 -13 -19 -28 -19 -34 0 -14 -59 -72 -74 -72 -20 0 -45 33 -52 68 -4 18
0 60 7 94 11 50 15 57 17 33 2 -16 8 -34 13 -39z m153 49 c-4 -8 -13 -15 -22
-15 -13 0 -12 3 4 15 24 18 25 18 18 0z m24 -15 c-23 -31 -28 -35 -28 -22 0 9
38 52 46 52 2 0 -5 -13 -18 -30z m-4251 -156 c19 -14 32 -29 29 -32 -4 -3 -16
4 -29 16 -30 29 -41 28 -71 -5 l-26 -27 23 -13 c20 -11 18 -11 -15 -6 -31 5
-41 1 -64 -23 -14 -16 -30 -28 -35 -26 -12 3 -11 -15 1 -23 6 -4 7 -11 4 -17
-4 -7 -9 -6 -14 1 -4 7 -14 -5 -26 -29 -10 -22 -25 -40 -33 -40 -8 0 -11 -6
-7 -17 4 -10 4 -14 0 -10 -4 4 -18 -18 -32 -48 -32 -70 -52 -72 -52 -6 0 28 5
53 11 56 6 4 8 14 5 22 -9 22 33 113 71 156 18 20 33 42 33 47 0 6 9 10 20 10
11 0 20 5 20 11 0 6 7 8 15 5 9 -3 18 1 22 9 3 10 12 13 24 10 11 -4 19 -2 19
6 0 20 68 3 107 -27z m534 -80 c131 -45 193 -125 169 -215 -15 -54 -47 -91
-73 -83 -16 5 -11 -5 21 -41 39 -45 72 -121 72 -167 0 -45 -24 -107 -57 -149
-20 -24 -33 -36 -30 -27 3 10 2 20 -3 23 -6 4 -10 1 -10 -4 0 -6 -18 -11 -40
-11 -65 0 -87 -15 -87 -62 0 -27 -7 -46 -22 -61 -12 -13 -21 -16 -21 -9 0 10
-4 10 -22 0 -28 -15 -98 -12 -153 8 -22 7 -47 14 -55 14 -23 0 -174 68 -178
79 -2 6 -19 13 -38 17 -19 3 -34 10 -34 15 0 5 -7 9 -15 9 -8 0 -19 9 -25 20
-6 11 -16 20 -23 20 -7 0 -31 20 -54 44 -23 24 -45 41 -48 38 -3 -3 -5 9 -5
26 0 16 -5 32 -11 34 -6 2 -13 25 -16 52 -6 47 -6 48 -19 25 -13 -23 -13 -23
-14 -3 0 32 38 142 73 209 38 73 129 167 183 190 35 15 174 40 264 47 72 6
193 -11 271 -38z m1577 -13 c-7 -12 -16 -21 -21 -21 -4 0 0 11 9 25 20 30 31
26 12 -4z m-28 -34 c0 -2 -10 -12 -22 -23 l-23 -19 19 23 c18 21 26 27 26 19z
m-277 -174 c-7 -2 -21 -2 -30 0 -10 3 -4 5 12 5 17 0 24 -2 18 -5z m-1288
-550 c-3 -16 -22 -44 -42 -63 l-36 -35 31 44 c18 25 32 53 32 63 0 10 5 18 11
18 7 0 9 -10 4 -27z m3470 -248 c-4 -25 -9 -44 -12 -41 -2 2 -1 25 2 51 4 25
9 44 12 41 2 -2 1 -25 -2 -51z m-18 -97 c-3 -7 -5 -2 -5 12 0 14 2 19 5 13 2
-7 2 -19 0 -25z m1599 -603 c-11 -8 -25 -15 -30 -15 -6 1 0 7 14 15 32 19 40
18 16 0z m-2906 -5 c8 -5 11 -10 5 -10 -5 0 -17 5 -25 10 -8 5 -10 10 -5 10 6
0 17 -5 25 -10z m2670 -105 c-14 -8 -29 -14 -35 -14 -5 0 1 6 15 14 14 8 30
14 35 14 6 0 -1 -6 -15 -14z m-103 -50 c-32 -19 -60 -35 -62 -35 -2 0 -21 -11
-41 -25 -22 -15 -49 -24 -68 -24 -30 2 -30 2 -3 6 15 2 69 29 120 59 50 29 97
54 102 54 6 0 -16 -16 -48 -35z m-317 -82 c0 -10 -61 -45 -67 -40 -2 3 11 14
29 25 40 24 38 24 38 15z m-94 -58 c-11 -8 -24 -15 -30 -15 -5 0 -1 7 10 15
10 8 24 14 29 14 6 0 1 -6 -9 -14z m-99 -41 c-3 -3 -12 -4 -19 -1 -8 3 -5 6 6
6 11 1 17 -2 13 -5z m-40 -10 c-3 -3 -12 -4 -19 -1 -8 3 -5 6 6 6 11 1 17 -2
13 -5z"/>
<path d="M7607 9265 c-80 -30 -144 -91 -193 -185 -29 -55 -29 -57 -32 -256 -6
-362 16 -475 111 -561 52 -48 95 -66 169 -71 146 -10 277 74 334 216 20 51 24
83 33 307 6 150 6 269 1 297 -21 107 -90 198 -186 243 -42 20 -68 25 -126 24
-40 0 -90 -7 -111 -14z m216 -49 c19 -7 48 -32 65 -54 27 -33 29 -41 16 -46
-9 -3 -29 4 -47 18 -18 13 -47 31 -66 41 -34 17 -34 18 -15 32 18 14 17 15
-11 9 -22 -5 -26 -4 -15 4 20 13 35 13 73 -4z"/>
<path d="M7179 8579 c-20 -20 -21 -29 -16 -103 12 -197 135 -374 310 -448 32
-13 55 -27 52 -30 -3 -3 13 -8 37 -12 61 -10 68 -19 68 -91 l0 -63 -67 -7
c-38 -4 -76 -14 -85 -23 -24 -21 -23 -65 3 -88 19 -17 39 -19 173 -21 216 -2
296 17 296 69 0 10 -11 30 -25 43 -21 22 -33 25 -90 25 l-65 0 0 73 0 73 63
18 c245 72 413 273 419 505 1 56 -1 66 -21 82 -29 24 -53 24 -81 1 -17 -14
-25 -38 -36 -107 -26 -164 -90 -256 -221 -317 -118 -56 -289 -48 -401 18 -103
61 -179 177 -188 291 -8 90 -12 102 -44 118 -39 20 -56 19 -81 -6z m1036 -9
c8 -13 -5 -13 -25 0 -13 8 -13 10 2 10 9 0 20 -4 23 -10z m-826 -338 c52 -54
92 -80 175 -112 59 -23 84 -27 139 -25 37 2 67 0 67 -4 0 -14 -174 -4 -220 13
-96 35 -153 79 -202 154 -29 44 -39 74 -11 34 9 -12 32 -39 52 -60z m518 -438
c-3 -3 -12 -4 -19 -1 -8 3 -5 6 6 6 11 1 17 -2 13 -5z"/>
<path d="M7315 7550 l-50 -7 45 -1 c25 0 54 3 65 8 23 10 12 10 -60 0z"/>
<path d="M7660 7550 c25 -8 107 -13 99 -6 -2 2 -31 6 -64 9 -37 3 -51 2 -35
-3z"/>
<path d="M8248 7553 c7 -3 16 -2 19 1 4 3 -2 6 -13 5 -11 0 -14 -3 -6 -6z"/>
<path d="M7478 7543 c23 -2 61 -2 85 0 23 2 4 4 -43 4 -47 0 -66 -2 -42 -4z"/>
<path d="M3818 8513 c6 -2 18 -2 25 0 6 3 1 5 -13 5 -14 0 -19 -2 -12 -5z"/>
<path d="M3893 8503 c9 -2 23 -2 30 0 6 3 -1 5 -18 5 -16 0 -22 -2 -12 -5z"/>
<path d="M1770 8467 c10 -9 100 -16 100 -9 0 5 -24 9 -52 11 -29 1 -50 0 -48
-2z"/>
<path d="M1648 8453 c6 -2 18 -2 25 0 6 3 1 5 -13 5 -14 0 -19 -2 -12 -5z"/>
<path d="M1723 8453 c9 -2 23 -2 30 0 6 3 -1 5 -18 5 -16 0 -22 -2 -12 -5z"/>
<path d="M1527 8440 c-27 -5 -52 -12 -55 -15 -7 -7 53 0 123 14 34 7 35 9 10
9 -16 0 -52 -4 -78 -8z"/>
<path d="M1548 8413 c6 -2 18 -2 25 0 6 3 1 5 -13 5 -14 0 -19 -2 -12 -5z"/>
<path d="M4670 8101 c0 -6 4 -13 10 -16 6 -3 7 1 4 9 -7 18 -14 21 -14 7z"/>
<path d="M7195 5610 c-21 -23 -31 -108 -21 -165 8 -41 44 -70 76 -60 54 17 82
161 42 214 -25 34 -71 39 -97 11z"/>
<path d="M8639 4933 c-13 -16 -12 -17 4 -4 16 13 21 21 13 21 -2 0 -10 -8 -17
-17z"/>
<path d="M8571 4906 c-10 -12 -8 -13 9 -9 25 7 37 23 17 23 -8 0 -20 -6 -26
-14z"/>
<path d="M8018 4243 c7 -3 16 -2 19 1 4 3 -2 6 -13 5 -11 0 -14 -3 -6 -6z"/>
<path d="M8382 3174 c-12 -143 -53 -356 -74 -381 -7 -9 -7 -13 1 -13 15 0 26
30 46 125 10 44 21 96 26 115 10 37 25 300 18 300 -3 0 -10 -66 -17 -146z"/>
<path d="M8920 2215 c-7 -8 -9 -15 -6 -15 4 0 14 7 22 15 9 8 11 15 6 15 -5 0
-15 -7 -22 -15z"/>
<path d="M7614 1674 c-18 -14 -18 -14 6 -3 31 14 36 19 24 19 -6 0 -19 -7 -30
-16z"/>
<path d="M4210 5879 c-19 -11 -27 -18 -17 -15 11 4 30 9 43 12 13 3 24 10 24
15 0 13 -11 11 -50 -12z"/>
<path d="M2000 5861 c0 -5 9 -11 21 -14 16 -4 18 -3 8 9 -13 16 -29 19 -29 5z"/>
<path d="M4150 5850 c-13 -8 -12 -10 3 -10 9 0 17 5 17 10 0 12 -1 12 -20 0z"/>
<path d="M4045 5805 c-22 -8 -31 -14 -20 -14 11 0 34 6 50 14 38 17 22 17 -30
0z"/>
<path d="M2084 5791 c4 -6 16 -16 28 -22 15 -8 18 -8 14 0 -4 6 -16 16 -28 22
-15 8 -18 8 -14 0z"/>
<path d="M3980 5786 c0 -2 7 -7 16 -10 8 -3 12 -2 9 4 -6 10 -25 14 -25 6z"/>
<path d="M3938 5773 c6 -2 18 -2 25 0 6 3 1 5 -13 5 -14 0 -19 -2 -12 -5z"/>
<path d="M3448 5693 c6 -2 18 -2 25 0 6 3 1 5 -13 5 -14 0 -19 -2 -12 -5z"/>
<path d="M3320 5680 l-45 -7 52 -1 c28 -1 55 3 58 8 7 11 4 11 -65 0z"/>
<path d="M2653 5653 c9 -2 23 -2 30 0 6 3 -1 5 -18 5 -16 0 -22 -2 -12 -5z"/>
<path d="M2898 5643 c12 -2 30 -2 40 0 9 3 -1 5 -23 4 -22 0 -30 -2 -17 -4z"/>
<path d="M1645 4690 c-3 -5 -1 -10 4 -10 6 0 11 5 11 10 0 6 -2 10 -4 10 -3 0
-8 -4 -11 -10z"/>
<path d="M6238 2153 c7 -3 16 -2 19 1 4 3 -2 6 -13 5 -11 0 -14 -3 -6 -6z"/>
<path d="M3025 3850 c-3 -5 -1 -10 4 -10 6 0 11 5 11 10 0 6 -2 10 -4 10 -3 0
-8 -4 -11 -10z"/>
<path d="M3796 3173 c-6 -14 -5 -15 5 -6 7 7 10 15 7 18 -3 3 -9 -2 -12 -12z"/>
</g>
</svg>
